<svg width="16px" height="16px" viewBox="0 0 16 16" fill="none" xmlns="http://www.w3.org/2000/svg">
<g clip-path="url(#clip0)">
<path d="M8 16C9.58225 16 11.129 15.5308 12.4446 14.6518C13.7602 13.7727 14.7855 12.5233 15.391 11.0615C15.9965 9.59966 16.155 7.99113 15.8463 6.43928C15.5376 4.88743 14.7757 3.46197 13.6569 2.34315C12.538 1.22433 11.1126 0.462403 9.56072 0.153721C8.00887 -0.15496 6.40034 0.00346625 4.93853 0.608967C3.47672 1.21447 2.22729 2.23985 1.34824 3.55544C0.469192 4.87103 0 6.41775 0 8C0 10.1217 0.842855 12.1566 2.34315 13.6569C3.84344 15.1571 5.87827 16 8 16Z" fill="#7A7A7A"/>
<path d="M3 8.00012C3.00159 9.32572 3.52888 10.5966 4.46622 11.5339C5.40356 12.4712 6.67441 12.9985 8 13.0001C8.58836 12.9953 9.17115 12.8855 9.721 12.6761L3.321 6.27612C3.11225 6.82711 3.00354 7.41093 3 8.00012Z" fill="#FFFFFF"/>
<path d="M7.99996 3C7.34251 3.00008 6.69161 3.1306 6.08496 3.384L12.616 9.915C12.9324 9.1556 13.0564 8.32978 12.9768 7.51094C12.8972 6.69209 12.6166 5.90559 12.1598 5.22133C11.703 4.53708 11.0843 3.97626 10.3586 3.58874C9.63288 3.20121 8.82266 2.99897 7.99996 3Z" fill="#FFFFFF"/>
</g>
<defs>
<clipPath id="clip0">
<rect width="16px" height="16px" fill="#FFFFFF"/>
</clipPath>
</defs>
</svg>
