<?xml version="1.0" encoding="UTF-8"?>
<svg width="16px" height="16px" viewBox="0 0 16 16" fill="none" xmlns="http://www.w3.org/2000/svg">
<path d="M8 16C12.4183 16 16 12.4183 16 8C16 3.58172 12.4183 0 8 0C3.58172 0 0 3.58172 0 8C0 12.4183 3.58172 16 8 16Z" fill="#015CDA"/>
<path d="M5 7.9999C5.00065 7.78629 5.02446 7.57338 5.071 7.3649L3.131 6.8999C3.04599 7.26046 3.00205 7.62947 3 7.9999C3.00517 8.41229 3.06161 8.82244 3.168 9.2209L5.109 8.7569C5.04013 8.51033 5.00349 8.25588 5 7.9999Z" fill="#FFFFFF"/>
<path d="M5.68991 9.89111L4.12891 11.1261C4.61194 11.7288 5.22805 12.2115 5.92891 12.5361L6.76791 10.7271C6.34933 10.5346 5.98052 10.2486 5.68991 9.89111Z" fill="#FFFFFF"/>
<path d="M5.62496 6.18799C5.9134 5.80958 6.2877 5.50521 6.71696 5.29999L5.87796 3.48999C5.1665 3.82797 4.54496 4.32925 4.06396 4.95299L5.62496 6.18799Z" fill="#FFFFFF"/>
<path d="M8 3V5C8.79565 5 9.55871 5.31607 10.1213 5.87868C10.6839 6.44129 11 7.20435 11 8C11 8.79565 10.6839 9.55871 10.1213 10.1213C9.55871 10.6839 8.79565 11 8 11V13C9.32608 13 10.5979 12.4732 11.5355 11.5355C12.4732 10.5979 13 9.32608 13 8C13 6.67392 12.4732 5.40215 11.5355 4.46447C10.5979 3.52678 9.32608 3 8 3Z" fill="#FFFFFF"/>
</svg>