<?xml version="1.0" encoding="UTF-8"?>
<svg width="16px" height="16px" viewBox="0 0 16 16" fill="none" xmlns="http://www.w3.org/2000/svg">
<g clip-path="url(#clip0)">
<path d="M8 16C9.58225 16 11.129 15.5308 12.4446 14.6518C13.7602 13.7727 14.7855 12.5233 15.391 11.0615C15.9965 9.59966 16.155 7.99113 15.8463 6.43928C15.5376 4.88743 14.7757 3.46197 13.6569 2.34315C12.538 1.22433 11.1126 0.462403 9.56072 0.153721C8.00887 -0.15496 6.40034 0.00346625 4.93853 0.608967C3.47672 1.21447 2.22729 2.23985 1.34824 3.55544C0.469192 4.87103 0 6.41775 0 8C0 10.1217 0.842855 12.1566 2.34315 13.6569C3.84344 15.1571 5.87827 16 8 16Z" fill="#E00B1C"/>
<path d="M12.5941 4.62805L11.1721 3.20605L7.90005 6.47805L4.62805 3.20605L3.20605 4.62805L6.47805 7.90005L3.20605 11.1721L4.62805 12.5941L7.90005 9.32205L11.1721 12.5941L12.5941 11.1721L9.32205 7.90005L12.5941 4.62805Z" fill="#FFFFFF"/>
</g>
<defs>
<clipPath id="clip0">
<rect width="16" height="16" fill="white"/>
</clipPath>
</defs>
</svg>